<?xml version="1.0" encoding="utf-8"?>
<!-- Generator: Adobe Illustrator 21.0.2, SVG Export Plug-In . SVG Version: 6.00 Build 0)  -->
<svg version="1.1" id="レイヤー_1" xmlns="http://www.w3.org/2000/svg" xmlns:xlink="http://www.w3.org/1999/xlink" x="0px"
	 y="0px" viewBox="0 0 17 17" style="enable-background:new 0 0 17 17;" xml:space="preserve">
<style type="text/css">
	.st0{fill:#040000;}
</style>
<title>アセット 1</title>
<g id="レイヤー_2">
	<g id="レイヤー_1-2">
		<path class="st0" d="M16,14.8l-4.2-4.4c2.1-2.9,1.5-7-1.4-9.1s-7-1.5-9.1,1.4s-1.5,7,1.4,9.1c2.2,1.6,5.2,1.7,7.5,0.2l4.2,4.4
			L16,14.8z M2.1,6.5c0-2.4,2-4.4,4.4-4.4c2.4,0,4.4,2,4.4,4.4c0,2.4-2,4.4-4.4,4.4c0,0,0,0,0,0C4.1,10.9,2.1,8.9,2.1,6.5z"/>
	</g>
</g>
</svg>
