<?xml version="1.0" standalone="no"?><!DOCTYPE svg PUBLIC "-//W3C//DTD SVG 1.1//EN" "http://www.w3.org/Graphics/SVG/1.1/DTD/svg11.dtd"><svg t="1579161110115" class="icon" viewBox="0 0 1024 1024" version="1.1" xmlns="http://www.w3.org/2000/svg" p-id="17785" xmlns:xlink="http://www.w3.org/1999/xlink" width="32" height="32"><defs><style type="text/css"></style></defs><path d="M950.436052 908.4718l-0.463558-0.451278 0.002047-0.001023L775.148817 733.323735c61.270459-70.873164 98.333586-163.254178 98.333586-264.292362 0-223.300762-181.02082-404.321582-404.321582-404.321582-223.300762 0-404.321582 181.02082-404.321582 404.321582s181.02082 404.321582 404.321582 404.321582c101.063767 0 193.465247-37.080523 264.34455-98.377588L904.993071 946.336176l-0.048095 0.047072 4.389984 4.27742c11.650341 11.349489 30.29498 11.105942 41.643446-0.542352C962.32994 938.466951 962.086393 919.820266 950.436052 908.4718zM122.714368 469.031373c0-191.33677 155.109684-346.44543 346.44543-346.44543 191.335746 0 346.444407 155.10866 346.444407 346.44543 0 191.335746-155.10866 346.44543-346.444407 346.44543C277.824051 815.477826 122.714368 660.367119 122.714368 469.031373z" p-id="17786"></path></svg>